<mxfile modified="2022-05-02T22:18:41.049Z" host="app.diagrams.net" agent="5.0 (Windows NT 10.0; Win64; x64) AppleWebKit/537.36 (KHTML, like Gecko) Chrome/100.0.4896.127 Safari/537.36 Edg/100.0.1185.50" etag="Kl0x9zKgX8c2VZFLlwqZ" compressed="false" version="17.5.0" type="google">
  <diagram id="oyi-jWmBFlKkB5lG6i_K" name="Security/Confidentiality/At Rest/Encrypted Database">
    <mxGraphModel grid="1" page="1" gridSize="10" guides="1" tooltips="1" connect="1" arrows="1" fold="1" pageScale="1" pageWidth="827" pageHeight="1169" math="0" shadow="0">
      <root>
        <mxCell id="VL1MYJmSaGnb1suXet0F-0" />
        <mxCell id="VL1MYJmSaGnb1suXet0F-1" parent="VL1MYJmSaGnb1suXet0F-0" />
        <mxCell id="VL1MYJmSaGnb1suXet0F-11" value="" style="rounded=0;jumpStyle=arc;orthogonalLoop=1;jettySize=auto;html=1;dashed=1;fillColor=#f5f5f5;strokeColor=#666666;" edge="1" parent="VL1MYJmSaGnb1suXet0F-1" source="VL1MYJmSaGnb1suXet0F-5" target="VL1MYJmSaGnb1suXet0F-10">
          <mxGeometry relative="1" as="geometry" />
        </mxCell>
        <mxCell id="VL1MYJmSaGnb1suXet0F-5" value="Database&lt;br&gt;Server&lt;br&gt;" style="verticalLabelPosition=bottom;aspect=fixed;html=1;verticalAlign=top;strokeColor=none;align=center;outlineConnect=0;shape=mxgraph.citrix.database_server;fillColor=none;" vertex="1" parent="VL1MYJmSaGnb1suXet0F-1">
          <mxGeometry x="342.5" y="425" width="40" height="45" as="geometry" />
        </mxCell>
        <mxCell id="VL1MYJmSaGnb1suXet0F-8" style="edgeStyle=none;rounded=0;jumpStyle=arc;orthogonalLoop=1;jettySize=auto;html=1;dashed=1;strokeWidth=2;strokeColor=#009900;" edge="1" parent="VL1MYJmSaGnb1suXet0F-1" source="VL1MYJmSaGnb1suXet0F-6" target="VL1MYJmSaGnb1suXet0F-5">
          <mxGeometry relative="1" as="geometry" />
        </mxCell>
        <mxCell id="VL1MYJmSaGnb1suXet0F-9" value="retrieves&lt;br&gt;key" style="edgeStyle=none;rounded=0;jumpStyle=arc;orthogonalLoop=1;jettySize=auto;html=1;dashed=1;strokeColor=#666666;" edge="1" parent="VL1MYJmSaGnb1suXet0F-1" source="VL1MYJmSaGnb1suXet0F-6" target="VL1MYJmSaGnb1suXet0F-7">
          <mxGeometry relative="1" as="geometry" />
        </mxCell>
        <mxCell id="VL1MYJmSaGnb1suXet0F-6" value="Web&lt;br&gt;Server" style="verticalLabelPosition=bottom;aspect=fixed;html=1;verticalAlign=top;strokeColor=none;align=center;outlineConnect=0;shape=mxgraph.citrix.web_server;fillColor=none;" vertex="1" parent="VL1MYJmSaGnb1suXet0F-1">
          <mxGeometry x="340" y="320" width="42.5" height="50" as="geometry" />
        </mxCell>
        <mxCell id="VL1MYJmSaGnb1suXet0F-7" value="Secure&lt;br&gt;Key Store" style="verticalLabelPosition=bottom;aspect=fixed;html=1;verticalAlign=top;strokeColor=none;align=center;outlineConnect=0;shape=mxgraph.citrix.license_server;fillColor=none;" vertex="1" parent="VL1MYJmSaGnb1suXet0F-1">
          <mxGeometry x="220" y="320" width="38.24" height="50" as="geometry" />
        </mxCell>
        <mxCell id="VL1MYJmSaGnb1suXet0F-10" value="backup" style="shadow=0;dashed=0;html=1;strokeColor=none;fillColor=#4495D1;labelPosition=right;verticalLabelPosition=middle;verticalAlign=middle;align=left;outlineConnect=0;shape=mxgraph.veeam.2d.backup_repository;" vertex="1" parent="VL1MYJmSaGnb1suXet0F-1">
          <mxGeometry x="470" y="427" width="40" height="40" as="geometry" />
        </mxCell>
        <mxCell id="VL1MYJmSaGnb1suXet0F-14" value="uses" style="edgeStyle=none;rounded=0;jumpStyle=arc;orthogonalLoop=1;jettySize=auto;html=1;dashed=1;strokeColor=#009900;strokeWidth=2;" edge="1" parent="VL1MYJmSaGnb1suXet0F-1" source="VL1MYJmSaGnb1suXet0F-12" target="VL1MYJmSaGnb1suXet0F-6">
          <mxGeometry relative="1" as="geometry" />
        </mxCell>
        <mxCell id="VL1MYJmSaGnb1suXet0F-12" value="User" style="shape=image;html=1;verticalAlign=top;verticalLabelPosition=bottom;labelBackgroundColor=#ffffff;imageAspect=0;aspect=fixed;image=https://cdn0.iconfinder.com/data/icons/elasto-online-store/26/00-ELASTOFONT-STORE-READY_user-128.png;fillColor=none;" vertex="1" parent="VL1MYJmSaGnb1suXet0F-1">
          <mxGeometry x="342.5" y="200" width="40" height="40" as="geometry" />
        </mxCell>
        <mxCell id="VL1MYJmSaGnb1suXet0F-15" value="no access&lt;br&gt;without key" style="edgeStyle=none;rounded=0;jumpStyle=arc;orthogonalLoop=1;jettySize=auto;html=1;dashed=1;strokeColor=#FF0000;" edge="1" parent="VL1MYJmSaGnb1suXet0F-1" source="VL1MYJmSaGnb1suXet0F-13" target="VL1MYJmSaGnb1suXet0F-10">
          <mxGeometry relative="1" as="geometry" />
        </mxCell>
        <mxCell id="VL1MYJmSaGnb1suXet0F-16" value="no access&lt;br&gt;without key" style="edgeStyle=none;rounded=0;jumpStyle=arc;orthogonalLoop=1;jettySize=auto;html=1;dashed=1;strokeColor=#FF0000;" edge="1" parent="VL1MYJmSaGnb1suXet0F-1" source="VL1MYJmSaGnb1suXet0F-13" target="VL1MYJmSaGnb1suXet0F-5">
          <mxGeometry relative="1" as="geometry" />
        </mxCell>
        <mxCell id="VL1MYJmSaGnb1suXet0F-13" value="" style="shape=image;html=1;verticalAlign=top;verticalLabelPosition=bottom;labelBackgroundColor=#ffffff;imageAspect=0;aspect=fixed;image=https://cdn0.iconfinder.com/data/icons/popo_emotions_the_blacy_png/128/bad_egg.png;fillColor=none;" vertex="1" parent="VL1MYJmSaGnb1suXet0F-1">
          <mxGeometry x="470" y="200" width="40" height="40" as="geometry" />
        </mxCell>
        <mxCell id="uEtSo5EABV7mvyWgQCkk-0" value="&lt;font style=&quot;font-size: 12px&quot;&gt;&lt;span style=&quot;font-size: 12px&quot;&gt;Diagram: Base System Logical Module -&amp;nbsp;&lt;/span&gt;Security - At Rest - Encrypted Database requires secured Key.&lt;/font&gt;" style="text;strokeColor=none;fillColor=none;html=1;fontSize=24;fontStyle=2;verticalAlign=middle;align=left;shadow=0;glass=0;comic=0;opacity=30;fontColor=#808080;" vertex="1" parent="VL1MYJmSaGnb1suXet0F-1">
          <mxGeometry x="120" y="605" width="520" height="20" as="geometry" />
        </mxCell>
        <mxCell id="RdU6mfiPnVtLHqJiw6Lp-2" value="" style="edgeStyle=orthogonalEdgeStyle;rounded=0;orthogonalLoop=1;jettySize=auto;html=1;strokeColor=#CC0000;fontSize=17;fontColor=#CC0000;" edge="1" parent="VL1MYJmSaGnb1suXet0F-1" source="RdU6mfiPnVtLHqJiw6Lp-0" target="VL1MYJmSaGnb1suXet0F-5">
          <mxGeometry relative="1" as="geometry" />
        </mxCell>
        <mxCell id="FZI-qqqhOjFsq3JWPr2R-3" value="" style="edgeStyle=orthogonalEdgeStyle;rounded=0;orthogonalLoop=1;jettySize=auto;html=1;strokeColor=#CC0000;fontSize=17;fontColor=#CC0000;exitX=1;exitY=0.5;exitDx=0;exitDy=0;" edge="1" parent="VL1MYJmSaGnb1suXet0F-1" source="RdU6mfiPnVtLHqJiw6Lp-0" target="VL1MYJmSaGnb1suXet0F-5">
          <mxGeometry relative="1" as="geometry" />
        </mxCell>
        <mxCell id="RdU6mfiPnVtLHqJiw6Lp-0" value="" style="shape=image;html=1;verticalAlign=top;verticalLabelPosition=bottom;labelBackgroundColor=#ffffff;imageAspect=0;aspect=fixed;image=https://cdn4.iconfinder.com/data/icons/top-search-7/128/_android_logo_robot_interface_media_social_-128.png" vertex="1" parent="VL1MYJmSaGnb1suXet0F-1">
          <mxGeometry x="216.62" y="425" width="45" height="45" as="geometry" />
        </mxCell>
        <mxCell id="RdU6mfiPnVtLHqJiw6Lp-1" style="edgeStyle=none;rounded=0;jumpStyle=arc;orthogonalLoop=1;jettySize=auto;html=1;dashed=1;strokeWidth=2;strokeColor=#009900;exitX=1;exitY=0.5;exitDx=0;exitDy=0;" edge="1" parent="VL1MYJmSaGnb1suXet0F-1">
          <mxGeometry relative="1" as="geometry">
            <mxPoint x="261.6199999999999" y="449.5" as="sourcePoint" />
            <mxPoint x="342.5" y="447.89651070578907" as="targetPoint" />
          </mxGeometry>
        </mxCell>
        <mxCell id="FZI-qqqhOjFsq3JWPr2R-0" value="DBA to&lt;br&gt;Stakeholders" style="shape=image;html=1;verticalAlign=top;verticalLabelPosition=bottom;labelBackgroundColor=#ffffff;imageAspect=0;aspect=fixed;image=https://cdn0.iconfinder.com/data/icons/elasto-online-store/26/00-ELASTOFONT-STORE-READY_user-128.png;fillColor=none;" vertex="1" parent="VL1MYJmSaGnb1suXet0F-1">
          <mxGeometry x="470" y="520" width="40" height="40" as="geometry" />
        </mxCell>
        <mxCell id="FZI-qqqhOjFsq3JWPr2R-1" value="X" style="edgeStyle=none;rounded=0;jumpStyle=arc;orthogonalLoop=1;jettySize=auto;html=1;dashed=1;strokeWidth=2;exitX=0;exitY=0.5;exitDx=0;exitDy=0;strokeColor=#CC0000;fontStyle=1;fontSize=17;fontColor=#CC0000;" edge="1" parent="VL1MYJmSaGnb1suXet0F-1" source="FZI-qqqhOjFsq3JWPr2R-0" target="VL1MYJmSaGnb1suXet0F-5">
          <mxGeometry relative="1" as="geometry">
            <mxPoint x="392.29999999999995" y="170" as="sourcePoint" />
            <mxPoint x="362.5" y="349.6052631578947" as="targetPoint" />
          </mxGeometry>
        </mxCell>
        <mxCell id="FZI-qqqhOjFsq3JWPr2R-2" value="X" style="edgeStyle=none;rounded=0;jumpStyle=arc;orthogonalLoop=1;jettySize=auto;html=1;dashed=1;strokeWidth=2;exitX=0.5;exitY=0;exitDx=0;exitDy=0;strokeColor=#CC0000;fontStyle=1;fontSize=17;fontColor=#CC0000;" edge="1" parent="VL1MYJmSaGnb1suXet0F-1" source="FZI-qqqhOjFsq3JWPr2R-0" target="VL1MYJmSaGnb1suXet0F-10">
          <mxGeometry relative="1" as="geometry">
            <mxPoint x="480" y="550" as="sourcePoint" />
            <mxPoint x="393" y="475" as="targetPoint" />
          </mxGeometry>
        </mxCell>
        <mxCell id="CU8X-Q7LD-UX-T9ooIJy-0" value="Access restricted&amp;nbsp;&lt;br&gt;to Deployment Pipeline Service Account" style="text;html=1;strokeColor=none;fillColor=none;align=center;verticalAlign=middle;whiteSpace=wrap;rounded=0;" vertex="1" parent="VL1MYJmSaGnb1suXet0F-1">
          <mxGeometry x="174.12" y="490" width="130" height="20" as="geometry" />
        </mxCell>
      </root>
    </mxGraphModel>
  </diagram>
</mxfile>
